<svg width="256" height="256" viewBox="0 0 256 256" fill="none" xmlns="http://www.w3.org/2000/svg">
  <path
    d="M153 248C167.094 238.668 166.842 217.764 166.842 186.709V23.2692L185.158 9V186.697C185.158 217.752 184.426 238.319 199 247.988H153V248Z"
    fill="#231F20" />
  <path
    d="M102 19C87.9061 28.3292 88.158 49.2265 88.158 80.2716V164.138L69.842 184V80.2716C69.842 49.2265 70.5737 28.6662 56 19H102Z"
    fill="#231F20" />
  <path
    d="M169 187.194C166.166 174.148 162.072 164.054 152.719 155.448C147.76 150.888 142.741 148.403 138.119 147.527C124.911 145.03 116.014 150.263 113.817 161.846C112.136 170.739 115.882 180.701 128.585 186.87C137.518 191.299 138.851 199.965 137.723 205.93C137.038 209.566 133.916 213.251 128.009 216.42C118.92 221.173 107.237 222.217 96.6716 220.224C81.1229 217.284 68.3477 207.85 70.9051 194.336C71.1573 192.991 71.4094 191.683 71.9737 190.399C84.3407 157.477 153.727 129.344 168.16 57.5102C167.619 43.8757 167.163 32.4856 166.815 24C166.082 28.8849 165.35 33.4458 164.534 37.8026C152.215 102.915 122.318 126.199 95.699 152.796C82.5757 166.082 71.8056 177.028 66.1385 188.791C63.557 194.3 61.708 199.437 60.7955 204.249C56.1729 228.674 72.394 243.557 91.3886 247.145C107.742 250.23 126.364 245.009 136.09 230.75C139.415 225.938 141.577 220.669 142.573 215.424C145.011 202.533 144.098 187.254 130.002 180.317C120.085 175.696 117.191 168.315 118.44 161.714C120.073 153.096 126.46 150.311 136.882 152.28C140.832 153.024 144.927 155.004 148.997 158.845C159.383 168.159 163.261 181.325 165.194 196.388C165.47 199.329 166.19 213.743 164.954 227.462C167.151 212.903 168.34 198.476 168.988 187.206L169 187.194Z"
    fill="#231F20" />
</svg>
  
